<svg xmlns="http://www.w3.org/2000/svg" xmlns:xlink="http://www.w3.org/1999/xlink" width="512" zoomAndPan="magnify" viewBox="0 0 384 383.999986" height="512" preserveAspectRatio="xMidYMid meet" version="1.0"><defs><g/><clipPath id="f78b8b68c0"><path d="M 192 0 C 85.960938 0 0 85.960938 0 192 C 0 298.039062 85.960938 384 192 384 C 298.039062 384 384 298.039062 384 192 C 384 85.960938 298.039062 0 192 0 Z M 192 0 " clip-rule="nonzero"/></clipPath></defs><g clip-path="url(#f78b8b68c0)"><rect x="-38.4" width="460.8" fill="#222220" y="-38.399999" height="460.799983" fill-opacity="1"/></g><g fill="#e4e2dd" fill-opacity="1"><g transform="translate(44.166939, 262.631748)"><g><path d="M 84.015625 -95.921875 C 81.984375 -101.128906 77.898438 -105.363281 71.765625 -108.625 C 65.640625 -111.882812 59.40625 -113.515625 53.0625 -113.515625 C 46.613281 -113.515625 41.117188 -111.835938 36.578125 -108.484375 C 32.035156 -105.140625 29.765625 -100.597656 29.765625 -94.859375 C 29.765625 -89.046875 32.164062 -84.613281 36.96875 -81.5625 C 41.78125 -78.519531 47.601562 -76.179688 54.4375 -74.546875 C 61.28125 -72.921875 68.140625 -71.070312 75.015625 -69 C 81.898438 -66.925781 87.742188 -63.175781 92.546875 -57.75 C 97.359375 -52.320312 99.765625 -45.242188 99.765625 -36.515625 C 99.765625 -23.722656 95.15625 -14 85.9375 -7.34375 C 76.71875 -0.6875 66.195312 2.640625 54.375 2.640625 C 42.46875 2.640625 32.234375 0.566406 23.671875 -3.578125 C 15.117188 -7.722656 10.84375 -12.835938 10.84375 -18.921875 C 10.84375 -24.210938 14.898438 -28.003906 23.015625 -30.296875 C 25.046875 -24.566406 29.347656 -20.15625 35.921875 -17.0625 C 42.492188 -13.976562 49.660156 -12.4375 57.421875 -12.4375 C 65.179688 -12.4375 71.460938 -14.15625 76.265625 -17.59375 C 81.078125 -21.03125 83.484375 -25.925781 83.484375 -32.28125 C 83.484375 -38.539062 81.078125 -43.125 76.265625 -46.03125 C 71.460938 -48.945312 65.644531 -51.175781 58.8125 -52.71875 C 51.976562 -54.269531 45.117188 -56.082031 38.234375 -58.15625 C 31.359375 -60.226562 25.515625 -64.148438 20.703125 -69.921875 C 15.898438 -75.703125 13.5 -83.617188 13.5 -93.671875 C 13.5 -103.640625 18.148438 -111.972656 27.453125 -118.671875 C 36.753906 -125.378906 46.476562 -128.734375 56.625 -128.734375 C 66.769531 -128.734375 75.898438 -126.835938 84.015625 -123.046875 C 92.128906 -119.253906 96.1875 -114.316406 96.1875 -108.234375 C 96.1875 -102.054688 92.128906 -97.953125 84.015625 -95.921875 Z M 84.015625 -95.921875 "/></g></g></g><g fill="#e4e2dd" fill-opacity="1"><g transform="translate(130.384206, 262.631748)"><g><path d="M 169.359375 -12.96875 L 170.9375 -83.21875 C 170.9375 -93.445312 168.816406 -101.050781 164.578125 -106.03125 C 160.347656 -111.019531 154.796875 -113.515625 147.921875 -113.515625 C 137.421875 -113.515625 126.21875 -108.753906 114.3125 -99.234375 C 114.664062 -74.617188 114.84375 -55.035156 114.84375 -40.484375 C 114.84375 -25.929688 115.414062 -12.523438 116.5625 -0.265625 C 113.65625 0.265625 110.566406 0.53125 107.296875 0.53125 C 99.179688 0.53125 95.125 -2.910156 95.125 -9.796875 C 95.125 -10.492188 95.210938 -14.109375 95.390625 -20.640625 C 96.097656 -36.160156 96.453125 -57.019531 96.453125 -83.21875 C 96.453125 -103.414062 88.515625 -113.515625 72.640625 -113.515625 C 62.316406 -113.515625 51.203125 -108.53125 39.296875 -98.5625 C 39.648438 -74.039062 39.828125 -54.59375 39.828125 -40.21875 C 39.828125 -25.84375 40.351562 -12.523438 41.40625 -0.265625 C 38.582031 0.265625 35.539062 0.53125 32.28125 0.53125 C 24.164062 0.53125 20.109375 -2.910156 20.109375 -9.796875 C 20.109375 -10.492188 20.328125 -17.128906 20.765625 -29.703125 C 21.210938 -42.273438 21.4375 -54.78125 21.4375 -67.21875 C 21.4375 -96.851562 19.71875 -115.992188 16.28125 -124.640625 C 19.894531 -126.046875 23.15625 -126.75 26.0625 -126.75 C 34.351562 -126.75 38.5 -122.25 38.5 -113.25 C 44.0625 -117.75 50.722656 -121.453125 58.484375 -124.359375 C 66.242188 -127.273438 73.738281 -128.734375 80.96875 -128.734375 C 95.789062 -128.734375 105.847656 -122.867188 111.140625 -111.140625 C 115.992188 -115.992188 122.804688 -120.140625 131.578125 -123.578125 C 140.359375 -127.015625 149.113281 -128.734375 157.84375 -128.734375 C 166.570312 -128.734375 174.023438 -125.710938 180.203125 -119.671875 C 186.378906 -113.628906 189.46875 -103.90625 189.46875 -90.5 L 188.546875 -42.203125 C 188.546875 -25.617188 190.085938 -11.992188 193.171875 -1.328125 C 189.554688 0.0859375 185.71875 0.796875 181.65625 0.796875 C 177.601562 0.796875 174.539062 -0.238281 172.46875 -2.3125 C 170.394531 -4.382812 169.359375 -7.9375 169.359375 -12.96875 Z M 169.359375 -12.96875 "/></g></g></g></svg>